<?xml version="1.0" encoding="UTF-8"?>
<svg id="Layer_1" data-name="Layer 1" xmlns="http://www.w3.org/2000/svg" viewBox="0 0 1120.29 335.56">
  <defs>
    <style>
      .cls-1 {
        fill: #bce0c6;
      }
    </style>
  </defs>
  <g>
    <path class="cls-1" d="M1000.22,178.1l-.24-29.25-13.14,29.11-6.88.1-13.34-29.52-.39,29.39c-2.52.14-4.39.14-6.92-.04v-44.14s8.66-.06,8.66-.06l15.4,34.47,15.4-34.45,8.77.09v44.15s-7.29.15-7.29.15Z"/>
    <path class="cls-1" d="M904.47,161.23l-11.91-.08-.02-6.65,19.39.06v23.47s-6.81,0-6.81,0l-.29-5.87c-3.83,4.26-8.6,6.23-14.2,6.38-12.96.34-22.93-9.71-22.82-22.66.08-9.49,5.26-18.02,14.34-21.21,12.02-4.23,26.65.73,29.78,14.64l-7.81.09c-1.41-4.03-3.97-6.74-7.83-8.21-4.87-1.85-10.37-1.2-14.7,1.88-3.87,2.76-6.32,7.57-6.27,12.86s2.2,10.18,6.61,13.06c6.23,4.06,14.58,3.32,19.91-1.76,1.67-1.59,2.61-3.66,2.63-6Z"/>
    <polygon class="cls-1" points="938.7 178.03 931.4 177.94 931.38 140.72 917.59 140.63 917.65 133.71 952.43 133.71 952.56 140.64 938.76 140.69 938.7 178.03"/>
  </g>
  <g>
    <path class="cls-1" d="M151.55,200.08h74.29s0,0,0,0c14.54,0,26.47-11.78,26.59-26.26.06-6.97-2.76-13.85-7.72-18.86-4.96-5.01-11.56-7.77-18.59-7.78l-74.14-.06h-.03c-14.71,0-26.76,11.8-26.87,26.31-.05,7.05,2.69,13.73,7.72,18.8,5.01,5.05,11.67,7.83,18.75,7.83ZM135.92,159.38c4.02-4.41,9.72-6.94,15.65-6.94h74.25s0-.01,0-.01c5.81,0,11.44,2.41,15.45,6.61,4.03,4.22,6.09,9.76,5.82,15.61-.45,9.58-8.27,19.83-19.17,19.84l-78.19.04h-.01c-10.79,0-18.38-9.84-19.23-18.96-.56-5.99,1.37-11.73,5.43-16.19Z"/>
    <path class="cls-1" d="M165.38,212.2h0l-41.63-.06h-.03c-14.71,0-26.76,11.8-26.87,26.31-.05,7.05,2.69,13.73,7.72,18.8,5.01,5.05,11.67,7.83,18.75,7.83h41.78s0,0,0,0c14.54,0,26.47-11.78,26.59-26.26.06-6.97-2.76-13.85-7.72-18.86-4.96-5.01-11.56-7.77-18.59-7.78ZM167.18,259.49l-45.68.04h-.01c-10.79,0-18.38-9.84-19.23-18.96-.56-5.99,1.37-11.73,5.43-16.19,4.02-4.41,9.72-6.94,15.65-6.94h41.74s0-.01,0-.01c5.81,0,11.44,2.41,15.45,6.61,4.03,4.22,6.09,9.76,5.82,15.61-.45,9.58-8.27,19.83-19.17,19.84Z"/>
    <path class="cls-1" d="M273.1,88.55c-4.96-5.01-11.56-7.77-18.59-7.78l-74.14-.06h-.03c-14.71,0-26.76,11.8-26.87,26.31-.05,7.05,2.69,13.73,7.72,18.8,5.01,5.05,11.67,7.83,18.75,7.83h74.29s0,0,0,0c14.54,0,26.47-11.78,26.59-26.26.06-6.97-2.76-13.85-7.72-18.86ZM256.3,128.06l-78.19.04h-.01c-10.79,0-18.38-9.84-19.23-18.96-.56-5.99,1.37-11.73,5.43-16.19,4.02-4.41,9.72-6.94,15.65-6.94h74.25s0-.01,0-.01c5.81,0,11.44,2.41,15.45,6.61,4.03,4.22,6.09,9.77,5.82,15.61-.45,9.58-8.26,19.83-19.17,19.84Z"/>
    <path class="cls-1" d="M242.28,218.85c-5.48-4.05-12.22-5.71-18.97-4.67-6.82,1.05-12.8,4.68-16.84,10.22-4.05,5.55-5.69,12.31-4.63,19.04,1.07,6.77,4.73,12.72,10.29,16.76,5.55,4.03,12.32,5.65,19.07,4.57,13.75-2.2,23.31-15.15,21.3-28.88-.99-6.75-4.71-12.96-10.22-17.04ZM245.67,246.79c-3.15,7.69-10.58,12.65-18.58,12.65-.77,0-1.53-.04-2.31-.14-8.76-1.05-15.89-7.88-17.34-16.61-1.48-8.93,3.42-17.79,11.92-21.54,7.26-3.2,15.72-1.62,21.57,4.02,5.91,5.71,7.77,14.19,4.73,21.6Z"/>
  </g>
  <g>
    <path class="cls-1" d="M725.38,220.98l15.45.07c-3.57,13.8-16.3,21.07-29.89,21.37-19.86.44-34.01-14.21-34.09-33.5-.07-18.86,13.62-33.75,33.05-33.58,9.92.09,19.54,3.89,25.3,11.02,6.46,8,8.37,18.15,6.57,27.72l-49.84.03c.98,7.88,6.79,13.38,13.52,14.82,7.59,1.62,15.37-.35,19.92-7.96ZM727.76,201.92c-2.28-10.15-9.82-13.76-17.94-13.63-8.36-.11-16.13,4.82-17.61,13.76l35.55-.13Z"/>
    <path class="cls-1" d="M507.6,242.41c-18.36-.35-31.57-12.71-33.26-30.18-2.06-21.31,13.98-37.66,35.17-36.98,18.89.61,33.06,14.65,32.86,33.88-.21,19.35-14.78,33.66-34.77,33.28ZM527.86,206.48c-1.05-11.49-10.71-18.76-21.18-17.86-10.37.89-18.4,9.49-18.23,20.47.18,12.16,9.79,20.64,21.21,19.89,11.26-.73,19.36-9.93,18.21-22.5Z"/>
    <path class="cls-1" d="M439.69,147.38v29.4h-24.56v-29.4h17.35v-12.84h-19.94c-7.09,0-12.84,5.75-12.84,12.84h0v29.4h-16.61v12.84h16.61v52.81h15.43v-52.81h24.56v52.81h15.43v-52.81h17.35v-12.84h-17.35v-29.4h17.35v-12.84h-19.94c-7.09,0-12.84,5.75-12.84,12.84h0Z"/>
    <path class="cls-1" d="M641.75,228.61h0c0,7.09,5.75,12.84,12.84,12.84h19.94v-12.84h-17.35v-95.04h-15.43v95.04Z"/>
    <path class="cls-1" d="M564.92,208.03l-.07,33.16-14.38-.04-.03-64.49h14.09s.83,9.1.83,9.1c3.58-5.97,9.49-8.86,15.87-9.18,0,0,2.81.23,8,.23h11.24v-22.81h15.43v22.81h17.35v12.84h-17.35v38.97h17.35v12.84h-19.94c-7.09,0-12.84-5.75-12.84-12.84v-38.97h-18.94l-2.67.04c-7.84.83-13.94,7.45-13.94,15.51l.02,2.85Z"/>
    <path class="cls-1" d="M387.13,228.91l-46.06-.05.07-39.25,31.53-.04v-12.79l-31.54-.1-.03-28.44,46.02-.04v-13.58h-60.92s.03,93.9.03,93.9c0,7.71,6.26,13.96,13.97,13.96h46.92s0-13.57,0-13.57Z"/>
    <path class="cls-1" d="M807.49,217.87c-.85-5.44-4.65-9.06-12.33-11.74-3.62-1.26-7.38-2.3-11.83-3.26l-1.21-.26c-4.12-.87-9.25-1.94-12.29-4.73-1.23-1.13-1.88-2.62-1.85-4.19.03-1.59.75-3.07,2.04-4.16,1.56-1.32,3.48-2.15,6.06-2.6,2.94-.39,5.76-.17,8.39.65,3.61,1.12,6.04,4.13,6.54,8.09h15.27c-.2-2.69-.69-5.13-1.54-7.67-4.13-10.59-16.72-12.46-23.86-12.63-6.69-.16-12.74,1.1-17.98,3.75-4.97,2.51-8.23,6.62-9.45,11.89-.81,3.5-.83,6.88-.09,10.06,1.41,5.99,7.04,8.67,11.8,10.33,3.93,1.37,8.1,2.47,13.54,3.54,3.75.74,8.41,1.66,11.63,4.65,2.34,2.17,2.44,5.62.25,8.03-3.96,4.35-12.26,4.23-18.06,1.91-4.21-1.69-5.53-5-6.28-8.37l-15.56.02c.16,2.72.37,5.01,1.25,7.33,3.48,9.23,13.28,12.15,18.8,13.06,6.54,1.08,18.87,2.07,28.09-3.46,6.88-4.13,10.05-11.52,8.69-20.26Z"/>
    <path class="cls-1" d="M872.03,217.87c-.85-5.44-4.65-9.06-12.33-11.74-3.62-1.26-7.38-2.3-11.83-3.26l-1.21-.26c-4.12-.87-9.25-1.94-12.29-4.73-1.23-1.13-1.88-2.62-1.85-4.19.03-1.59.75-3.07,2.04-4.16,1.56-1.32,3.48-2.15,6.06-2.6,2.94-.39,5.76-.17,8.39.65,3.61,1.12,6.04,4.13,6.54,8.09h15.27c-.2-2.69-.69-5.13-1.54-7.67-4.13-10.59-16.72-12.46-23.86-12.63-6.69-.16-12.74,1.1-17.98,3.75-4.97,2.51-8.23,6.62-9.45,11.89-.81,3.5-.83,6.88-.09,10.06,1.41,5.99,7.04,8.67,11.8,10.33,3.93,1.37,8.1,2.47,13.54,3.54,3.75.74,8.41,1.66,11.63,4.65,2.34,2.17,2.44,5.62.25,8.03-3.96,4.35-12.26,4.23-18.06,1.91-4.21-1.69-5.53-5-6.28-8.37l-15.56.02c.16,2.72.37,5.01,1.25,7.33,3.48,9.23,13.28,12.15,18.8,13.06,6.54,1.08,18.87,2.07,28.09-3.46,6.88-4.13,10.05-11.52,8.69-20.26Z"/>
  </g>
</svg>